<?xml version="1.0" standalone="no"?>
<!DOCTYPE svg PUBLIC "-//W3C//DTD SVG 20010904//EN"
 "http://www.w3.org/TR/2001/REC-SVG-20010904/DTD/svg10.dtd">
<svg version="1.0" xmlns="http://www.w3.org/2000/svg"
 width="200.000000pt" height="200.000000pt" viewBox="0 0 200.000000 200.000000"
 preserveAspectRatio="xMidYMid meet">
<metadata>
Created by potrace 1.11, written by Peter Selinger 2001-2013
</metadata>
<g transform="translate(0.000000,200.000000) scale(0.100000,-0.100000)"
fill="#000000" stroke="none">
<path d="M187 1772 c-6 -2 -23 -9 -35 -15 -52 -25 -52 -24 -52 -612 0 -601 -1
-590 61 -615 17 -8 136 -11 348 -12 l321 0 1 -24 c0 -13 1 -51 1 -84 0 -33 -1
-79 -1 -103 l-1 -43 -56 3 c-41 1 -57 -2 -61 -13 -3 -8 -2 -18 1 -22 9 -9 554
-10 568 -1 6 4 8 14 5 22 -4 10 -20 14 -61 13 l-56 -1 0 126 0 127 330 1 c352
0 354 1 384 52 14 24 16 88 16 574 0 535 0 548 -20 581 -12 18 -31 36 -43 40
-21 7 -1623 13 -1650 6z m1649 -56 c18 -14 19 -33 21 -566 2 -533 1 -552 -18
-571 -18 -18 -42 -19 -837 -19 -790 0 -819 1 -839 19 -20 19 -20 28 -20 566 0
521 1 549 18 566 18 18 53 19 837 19 691 0 821 -2 838 -14z m-710 -1323 c1
-106 -2 -123 -15 -124 -20 -1 -212 -1 -226 0 -7 1 -11 46 -10 126 l0 125 125
-3 125 -2 1 -122z"/>
<path d="M1103 1463 c-3 -10 -61 -155 -129 -322 -67 -168 -120 -311 -117 -318
7 -17 29 -17 36 0 176 437 255 642 251 649 -9 14 -34 9 -41 -9z"/>
<path d="M639 1341 c-199 -104 -324 -180 -324 -196 0 -10 21 -28 50 -44 52
-27 179 -98 250 -139 22 -12 50 -27 62 -34 23 -11 53 -5 53 11 0 8 -216 134
-322 188 -16 8 -28 16 -28 18 0 5 42 29 208 120 130 72 157 94 133 109 -4 3
-41 -12 -82 -33z"/>
<path d="M1274 1369 c-10 -16 13 -36 94 -80 217 -119 254 -141 248 -146 -3 -3
-80 -47 -173 -98 -92 -51 -169 -98 -171 -104 -2 -6 4 -14 13 -17 16 -7 41 3
105 42 19 11 60 34 90 51 182 99 210 116 210 128 0 13 -32 34 -145 96 -33 18
-95 52 -138 76 -97 55 -124 65 -133 52z"/>
</g>
</svg>
